<?xml version="1.0" encoding="utf-8" ?><svg xmlns="http://www.w3.org/2000/svg" xmlns:xlink="http://www.w3.org/1999/xlink" width="18.8463" height="16"><path fill="#FFF" transform="matrix(1 0 0 1 0.423155 0)" d="M8.9951 11.5588C9.2909 11.5589 9.5156 11.6506 9.6788 11.8236C9.842 11.9865 9.9132 12.2312 9.9132 12.5467C9.9132 12.8318 9.8317 13.0767 9.6583 13.26C9.4849 13.4433 9.2705 13.5346 8.9951 13.5346C8.6992 13.5346 8.4747 13.443 8.3114 13.2698C8.1482 13.1069 8.077 12.8624 8.077 12.5467C8.0771 12.2617 8.1585 12.0176 8.3319 11.8344C8.5054 11.6511 8.7196 11.5588 8.9951 11.5588Z"/><path fill="#FFF" transform="matrix(1 0 0 1 0.423155 0)" d="M9.7599 4.4305L9.7599 5.3568C9.7599 5.8762 9.75 6.4267 9.7296 7.0072C9.699 7.5876 9.6581 8.1582 9.6173 8.7182C9.5765 9.278 9.5154 9.8175 9.4542 10.3061L9.4542 10.3374L8.6279 10.3374L8.6279 10.3061C8.5667 9.7767 8.5046 9.2169 8.4638 8.6469L8.4638 8.6361L8.454 8.6361C8.403 8.0761 8.3621 7.5057 8.3417 6.9456C8.3315 6.3855 8.3114 5.8558 8.3114 5.3568L8.3114 4.4305L9.7599 4.4305Z"/><path fill="#FFF" transform="matrix(1 0 0 1 0.423155 0)" d="M9.0156 0C9.6176 0.0001 10.179 0.3259 10.4749 0.8452L17.7809 13.4633L17.7701 13.4633C18.4232 14.5835 17.6072 15.9999 16.3011 16L1.6989 16C0.3929 15.9999 -0.4232 14.5937 0.2299 13.4633L7.5359 0.8452C7.842 0.3259 8.3931 0 8.9951 0L9.0156 0ZM8.9951 1.2625C8.8523 1.2625 8.7091 1.3442 8.6376 1.4765L1.3424 14.0955C1.3017 14.1565 1.2809 14.2374 1.2809 14.3085C1.2808 14.39 1.3016 14.4614 1.3424 14.5225C1.4138 14.6549 1.5459 14.7365 1.6989 14.7365L16.3216 14.7365C16.4746 14.7365 16.6067 14.6549 16.6781 14.5225L16.6586 14.5225C16.6994 14.441 16.7702 14.2783 16.6586 14.0955L9.3624 1.4765C9.2604 1.2833 9.0768 1.2625 8.9951 1.2625Z" fill-rule="evenodd"/></svg>